# xmcd CD database file
#
# Track frame offsets:
#	150
#	15282
#	36335
#	50620
#	64935
#	81977
#	97037
#	112637
#	130897
#	144420
#	157467
#	169837
#	182670
#
# Disc length: 2709 seconds
#
# Revision: 12
# Processed by: cddbd v1.5.2PL0 Copyright (c) Steve Scherf et al.
# Submitted via: CDex 1.50
#
DISCID=b00a930d
DTITLE=AlisonKrauss and Union Station - New Favorite
DYEAR=2001
DGENRE=Country
TTITLE0=Let Me Touch You For Awhile
TTITLE1=The Boy Who Wouldn't Hoe Corn
TTITLE2=The Lucky One
TTITLE3=Choctaw Hayride
TTITLE4=Crazy Faith
TTITLE5=Momma Cried
TTITLE6=I'm Gone
TTITLE7=Daylight
TTITLE8=Bright Sunny South
TTITLE9=Stars
TTITLE10=It All Comes Down To You
TTITLE11=Take Me For Longing
TTITLE12=New Favorite
EXTD=YEAR: 2001
EXTT0=
EXTT1=
EXTT2=
EXTT3=
EXTT4=
EXTT5=
EXTT6=
EXTT7=
EXTT8=
EXTT9=
EXTT10=
EXTT11=
EXTT12=
PLAYORDER=
